<?xml version="1.0"?>

<!DOCTYPE svg PUBLIC '-//W3C//DTD SVG 1.0//EN' 'http://www.w3.org/TR/2001/REC-SVG-20010904/DTD/svg10.dtd'>
<svg fill-opacity="0.8" xmlns:xlink="http://www.w3.org/1999/xlink" color-rendering="auto" color-interpolation="auto" text-rendering="auto" stroke="black" stroke-linecap="square" stroke-miterlimit="10" shape-rendering="auto" stroke-opacity="0.8" fill="black" stroke-dasharray="none" font-weight="normal" stroke-width="0.5" xmlns="http://www.w3.org/2000/svg" font-family="&apos;Dialog&apos;" font-style="normal" stroke-linejoin="miter" font-size="9" stroke-dashoffset="0" image-rendering="auto" viewBox="0 0 16px 16px" transform-origin="-16px 0px 0px 0px">
  <!--Unicode Character 'HEAVY BALLOT X' (U+2718)-->
  <defs id="genericDefs" />
  <g transform="scale(0.05) translate(0, -180)">
    <g>
      <path d="M70.3125 288.5625 L52.4531 216 Q51.3281 212.4844 51.3281 209.6719 Q51.3281 201.2344 56.1094 195.3281 Q60.8906 189.4219 66.7969 189.4219 Q77.4844 189.4219 89.1562 204.2578 Q100.8281 219.0938 110.5312 243.8438 Q113.2031 241.7344 133.875 219.0938 Q150.8906 200.5312 156.1641 196.5938 Q161.4375 192.6562 167.3438 192.6562 Q174.6562 192.6562 180.9141 199.7578 Q187.1719 206.8594 187.1719 214.4531 Q187.1719 221.3438 179.7188 221.7656 Q177.1875 221.7656 176.4844 222.3281 L175.7812 225 Q175.3594 226.2656 172.8281 229.5 Q164.9531 238.2188 149.7656 262.2656 Q132.75 288.5625 130.5 291.0938 Q126.9844 295.4531 126.9844 300.0938 Q126.9844 309.7969 133.2422 326.5312 Q139.5 343.2656 150.3281 358.4531 Q154.9688 365.4844 154.9688 367.7344 Q154.9688 369.1406 152.5781 372.9375 Q153.5625 374.2031 153.5625 375.4688 Q153.5625 378.1406 151.875 379.4062 Q150.1875 380.6719 144 383.9062 Q144 392.2031 137.1094 392.2031 Q134.1562 392.2031 128.8125 388.6875 Q123.4688 385.1719 121.5 382.0781 Q119.3906 379.5469 117.2812 378.7031 Q115.0312 378.1406 113.9062 377.2266 Q112.7812 376.3125 108.5625 371.8125 Q108.2812 371.25 105.1875 369.4219 Q101.25 367.7344 97.5938 360.5625 Q95.7656 356.0625 87.8906 343.8281 Q41.9062 393.4688 39.375 396.2109 Q36.8438 398.9531 33.3281 402.0469 Q29.8125 405.1406 27.7031 405.1406 Q25.3125 405.1406 23.8359 403.7344 Q22.3594 402.3281 22.2188 394.4531 L20.3906 392.4844 Q19.5469 391.6406 18.7031 388.125 L15.8906 386.7188 Q13.6406 382.5 8.2969 377.8594 L8.0156 373.5 L7.1719 369.7031 Q7.1719 368.0156 8.9297 364.2188 Q10.6875 360.4219 26.4375 341.3672 Q42.1875 322.3125 45.8438 318.7969 Q59.625 305.8594 60.4688 301.7812 Q63.4219 290.6719 70.3125 288.5625 Z" stroke="none" />
    </g>
  </g>
</svg>
