<?xml version="1.0" encoding="utf-8"?>
<!-- Generator: Adobe Illustrator 14.0.0, SVG Export Plug-In . SVG Version: 6.00 Build 43363)  -->
<!DOCTYPE svg PUBLIC "-//W3C//DTD SVG 1.1//EN" "http://www.w3.org/Graphics/SVG/1.1/DTD/svg11.dtd">
<svg version="1.1" id="Layer_1" xmlns="http://www.w3.org/2000/svg" xmlns:xlink="http://www.w3.org/1999/xlink" x="0px" y="0px"
	 width="14px" height="14px" viewBox="0 0 14 14" enable-background="new 0 0 14 14" xml:space="preserve">
<g>
	<path d="M13.121,0.875C12.538,0.291,11.77,0,11.001,0c-0.77,0-1.538,0.291-2.121,0.875l-2,2c0,0,0.976,0.063,1.423,0.344
		l1.461-1.461C10.092,1.43,10.53,1.25,11.001,1.25c0.469,0,0.908,0.18,1.236,0.508c0.682,0.684,0.682,1.793,0,2.475L9.95,6.52
		L8.64,7.83L8.63,7.84C8.302,8.168,7.862,8.348,7.394,8.348c-0.471,0-0.909-0.18-1.237-0.508L5.272,8.723
		c0.463,0.463,1.042,0.734,1.645,0.83c0.158,0.024,0.316,0.045,0.477,0.045c0.769,0,1.537-0.291,2.12-0.875l0.01-0.01l3.598-3.598
		C14.287,3.949,14.287,2.041,13.121,0.875z"/>
	<path d="M4.041,7.48l1.327-1.327l0.01-0.01c0.328-0.328,0.767-0.508,1.237-0.508c0.469,0,0.908,0.18,1.236,0.508l0.883-0.883
		c-0.462-0.463-1.041-0.734-1.644-0.83C6.933,4.406,6.774,4.386,6.615,4.386c-0.77,0-1.538,0.291-2.121,0.875l-0.01,0.01L0.87,8.885
		c-1.166,1.166-1.166,3.074,0,4.24C1.453,13.709,2.222,14,2.991,14c0.769,0,1.537-0.291,2.12-0.875l2-2c0,0-0.902-0.021-1.439-0.328
		l-1.444,1.445C3.899,12.57,3.46,12.75,2.991,12.75c-0.471,0-0.909-0.18-1.237-0.508c-0.682-0.682-0.682-1.791,0-2.475L4.041,7.48z"
		/>
</g>
</svg>
