<?xml version="1.0" encoding="utf-8"?>
<!-- Generator: Adobe Illustrator 15.1.0, SVG Export Plug-In . SVG Version: 6.00 Build 0)  -->
<!DOCTYPE svg PUBLIC "-//W3C//DTD SVG 1.1//EN" "http://www.w3.org/Graphics/SVG/1.1/DTD/svg11.dtd">
<svg version="1.1" id="Layer_1" xmlns="http://www.w3.org/2000/svg" xmlns:xlink="http://www.w3.org/1999/xlink" x="0px" y="0px"
	 width="14px" height="14px" viewBox="0 0 14 14" enable-background="new 0 0 14 14" xml:space="preserve">
<linearGradient id="SVGID_1_" gradientUnits="userSpaceOnUse" x1="7.0005" y1="14" x2="7.0005" y2="4.882812e-04">
	<stop  offset="0.0368" style="stop-color:#273558"/>
	<stop  offset="0.9939" style="stop-color:#42668D"/>
</linearGradient>
<path fill="url(#SVGID_1_)" d="M14,11c0,1.657-1.343,3-3,3H3c-1.657,0-3-1.343-3-3V3c0-1.657,1.343-3,3-3h8c1.657,0,3,1.343,3,3V11z
	"/>
<linearGradient id="SVGID_2_" gradientUnits="userSpaceOnUse" x1="6.9995" y1="-2.8218" x2="6.9995" y2="13.0904">
	<stop  offset="0.2883" style="stop-color:#FFFFFF"/>
	<stop  offset="0.6258" style="stop-color:#EBD479"/>
	<stop  offset="0.7117" style="stop-color:#F4E395"/>
	<stop  offset="0.9141" style="stop-color:#FFEED6"/>
</linearGradient>
<path fill="url(#SVGID_2_)" d="M11,1H3C1.896,1,1,1.896,1,3v1v7c0,1.104,0.896,2,2,2h8c1.104,0,2-0.896,2-2V4V3
	C13,1.896,12.104,1,11,1z"/>
<g>
	<g>
		
			<radialGradient id="SVGID_3_" cx="-1191.5493" cy="-158.7007" r="20.3061" gradientTransform="matrix(0.5118 0.3023 -0.4069 0.63 547.2499 463.3288)" gradientUnits="userSpaceOnUse">
			<stop  offset="0.3308" style="stop-color:#73C8EC"/>
			<stop  offset="0.4484" style="stop-color:#128DBB"/>
			<stop  offset="0.4836" style="stop-color:#D16432"/>
			<stop  offset="0.5995" style="stop-color:#D15F2C"/>
			<stop  offset="0.7588" style="stop-color:#D0511A"/>
			<stop  offset="0.9264" style="stop-color:#CF3D00"/>
		</radialGradient>
		<path fill="url(#SVGID_3_)" d="M11.757,8.875c-0.322-0.925-0.532-1.81-0.888-2.848c-0.177-0.524-0.365-1.115-0.541-1.643
			C10.136,3.812,9.801,3.296,9.531,2.81C9.423,2.605,9.149,2.131,8.857,2.133c-0.088,0-0.151,0.043-0.206,0.082
			C8.459,2.343,6.693,4.85,6.486,4.932c-0.062,0.03-0.141,0.039-0.213,0.063C6.114,5.058,5.994,5.129,5.87,5.237
			C5.662,5.427,5.467,5.672,5.293,5.901C5.256,5.949,4.904,6.453,4.852,6.526L2.235,7.638c0,0,3.118,1.896,3.326,2.414
			c0.142,0.368,0.858,1.406,0.999,1.779c0.472-0.111,0.766-0.591,1.077-0.866c0.335-0.302,0.64-0.703,0.919-1.062
			C9.11,9.207,9.331,8.76,10.25,8.649c0.247-0.032,0.709,0.11,0.823,0.206c0.171,0.142,0.391,0.232,0.552,0.378
			C11.913,9.489,11.859,9.184,11.757,8.875z"/>
		<path fill="#F5AE81" d="M9.628,4.995C9.735,5.954,9.59,6.735,9.312,6.75C9.023,6.764,8.706,5.997,8.596,5.045
			c-0.102-0.96,0.041-1.742,0.32-1.756C9.201,3.274,9.521,4.035,9.628,4.995z"/>
	</g>
	<g>
		<path fill="none" d="M7.867,3.69c-0.516,0.712-0.994,1.381-1.47,1.634C5.86,5.611,5.721,5.856,5.562,6.139
			C5.496,6.256,5.434,6.362,5.355,6.464c-0.234,0.328-1.33,0.799-2.427,1.215l1.603,1.056c0,0,0.049,0.02,0.121,0.064l0.069-0.05
			l-0.069,0.05c0.367,0.213,1.494,0.992,2.097,2.67c0.361-0.263,0.896-0.907,1.24-1.328c0.771-0.934,1.439-1.734,2.156-1.765
			c0.078-0.009,0.157-0.02,0.241-0.02c0.325,0,0.667,0.137,0.984,0.345c-0.22-0.625-0.482-1.408-0.766-2.36
			c0,0-1.221-3.716-1.7-3.904C8.886,2.426,8.862,2.432,8.837,2.44L8.749,2.484L8.837,2.44C8.584,2.499,8.143,3.309,7.867,3.69z"/>
		<linearGradient id="SVGID_4_" gradientUnits="userSpaceOnUse" x1="8.1367" y1="2.2129" x2="8.1367" y2="12.0005">
			<stop  offset="0" style="stop-color:#A32E17"/>
			<stop  offset="0.2308" style="stop-color:#972D13"/>
			<stop  offset="0.645" style="stop-color:#78290A"/>
			<stop  offset="1" style="stop-color:#582500"/>
		</linearGradient>
		<path fill="url(#SVGID_4_)" d="M11.972,9.06c-0.21-0.692-1.816-6.152-2.686-6.847L8.765,2.316l0.046,0.129
			c0.036-0.02,0.075-0.02,0.095-0.009c0.479,0.188,1.7,3.904,1.7,3.904c0.283,0.952,0.546,1.735,0.766,2.36
			c-0.317-0.208-0.659-0.334-0.984-0.345c-1.14-0.033-1.627,0.851-2.397,1.784c-0.345,0.421-0.879,1.065-1.24,1.328
			C6.146,9.791,5.02,9.012,4.652,8.799l-0.38,0.27l0.013,0.006c0,0,1.568,0.745,2.181,2.926c0,0,0.02,0,0.029,0
			c1.032,0,2.68-3.425,3.892-3.231c0.364,0.057,0.807,0.286,1.185,0.61C11.771,9.543,12.099,9.482,11.972,9.06z"/>
		<g>
			<linearGradient id="SVGID_5_" gradientUnits="userSpaceOnUse" x1="5.7065" y1="1.9995" x2="5.7065" y2="9.0688">
				<stop  offset="0" style="stop-color:#3088CD"/>
				<stop  offset="0.5471" style="stop-color:#185991"/>
				<stop  offset="0.8957" style="stop-color:#0B3F6F"/>
			</linearGradient>
			<path fill="url(#SVGID_5_)" d="M8.979,2.009C8.955,2.004,8.936,2,8.915,2C8.019,1.961,7.01,4.52,6.186,4.962
				C5.33,5.416,5.275,5.848,5,6.226C4.725,6.609,2,7.571,2,7.571l2.272,1.497l0.325-0.228C5.078,8.532,5.9,7.916,6.629,6.865
				C7.638,5.422,8.25,3.687,8.544,2.859c0,0,0.052-0.151,0.089-0.219c0.054-0.098,0.117-0.165,0.204-0.2
				c0.228-0.119,0.576-0.098,0.576-0.098C9.296,2.195,9.11,2.039,8.979,2.009z M4.256,8.552L2.929,7.679
				C3.666,7.403,4.39,7.098,4.863,6.833l0.77,0.581C5.082,8,4.559,8.367,4.256,8.552z M6.264,6.638
				c-0.113,0.163-0.23,0.316-0.352,0.46L5.238,6.59c0.05-0.044,0.092-0.089,0.117-0.126c0.078-0.102,0.141-0.208,0.206-0.325
				C5.721,5.856,5.86,5.611,6.397,5.324C6.805,5.105,7.225,4.573,7.66,3.973C7.326,4.788,6.871,5.77,6.264,6.638z"/>
		</g>
	</g>
</g>
</svg>
