<svg width="16" height="16" xmlns="http://www.w3.org/2000/svg">

 <g>
  <title>background</title>
  <rect fill="none" id="canvas_background" height="18" width="18" y="-1" x="-1"/>
 </g>
 <g>
  <title>Layer 1</title>
  <path fill="#999999" stroke="null" id="svg_1" d="m5.036199,0.216694q0.585593,0 1.25959,0.146398t1.298488,0.353619l1.248982,0.414441t1.298488,0.353619t1.25959,0.146398q0.596909,0 1.176844,-0.072138t0.988718,-0.176809t0.731991,-0.21005t0.483751,-0.176809l0.154885,-0.072138l0,9.901328q-0.055165,0.027582 -0.165494,0.07426t-0.466777,0.171152t-0.743307,0.215708t-0.975281,0.168323t-1.18533,0.077089q-0.585593,0 -1.25959,-0.146398t-1.298488,-0.353619l-1.248982,-0.414441t-1.298488,-0.353619t-1.25959,-0.146398q-1.055199,0 -2.121713,0.237632l0,4.713032q0,0.292796 -0.207221,0.500017t-0.500017,0.207221t-0.500017,-0.207221t-0.207221,-0.500017l0,-14.144755q0.055165,-0.027582 0.165494,-0.07426t0.466777,-0.171152t0.743307,-0.215708t0.975281,-0.168323t1.18533,-0.077089l0,0.000707zm0,1.414475q-1.082781,0 -2.121713,0.281481l0,7.000239q1.060857,-0.21005 2.121713,-0.21005q0.784327,0 1.569361,0.179638t1.784361,0.511333q0.127303,0.044556 0.478093,0.162665t0.514162,0.171152t0.478093,0.143569t0.527599,0.132961t0.488701,0.077089t0.52477,0.036069q1.082781,0 2.121713,-0.281481l0,-7.000239q-1.060857,0.21005 -2.121713,0.21005q-0.784327,0 -1.569361,-0.179638t-1.784361,-0.511333q-0.127303,-0.044556 -0.478093,-0.162665t-0.514162,-0.171152t-0.478093,-0.143569t-0.527599,-0.132961t-0.488701,-0.077089t-0.52477,-0.036069z"/>
 </g>
</svg>