<svg width="24" height="24" xmlns="http://www.w3.org/2000/svg">

 <g>
  <title>background</title>
  <rect fill="none" id="canvas_background" height="26" width="26" y="-1" x="-1"/>
 </g>
 <g>
  <title>Layer 1</title>
  <rect stroke="#000000" rx="2" id="svg_3" height="22.124995" width="21.999994" y="0.95" x="1.000002" stroke-width="1.5" fill="none"/>
  <path stroke="null" id="svg_1" d="m8.121124,11.20682c0.289561,0.283568 1.405969,1.439446 1.405969,1.439446l0.618759,-0.62601l-0.969976,-0.983036l1.861781,-1.940146c0,0 -0.840059,-0.803713 -0.472326,-0.483416c0.351768,-1.281188 0.031378,-2.710371 -0.960617,-3.717712c-0.983188,-0.99924 -2.380349,-1.326558 -3.635483,-0.982496l2.127121,2.155657l-0.559856,2.115148l-2.08253,0.564435l-2.12602,-2.156198c-0.339106,1.273086 -0.016515,2.689306 0.968875,3.689086c1.033833,1.048392 2.522378,1.356806 3.824854,0.925782l-0.00055,-0.00054zm7.092054,2.096243l-2.565316,2.486217l4.23057,4.301053c0.345162,0.351084 0.799872,0.526626 1.253482,0.526626c0.451408,0 0.905568,-0.175002 1.252381,-0.526626c0.692525,-0.702709 0.692525,-1.839682 0,-2.54239l-4.171667,-4.244879l0.00055,0zm5.588646,-7.213972l-2.694133,-2.731436l-7.942021,8.056574l0.969976,0.983036l-4.753542,4.820657l-1.086681,0.569837l-1.534786,2.45705l0.390853,0.397535l2.422738,-1.557194l0.561507,-1.102405l4.754093,-4.820117l0.970526,0.983036l7.942021,-8.056574l-0.00055,0z"/>
 </g>
</svg>