<?xml version="1.0" encoding="utf-8"?>
<!-- Generator: Adobe Illustrator 20.1.0, SVG Export Plug-In . SVG Version: 6.00 Build 0)  -->
<svg version="1.1" id="Layer_1" xmlns="http://www.w3.org/2000/svg" xmlns:xlink="http://www.w3.org/1999/xlink" x="0px" y="0px"
	 width="24px" height="24px" viewBox="0 0 16 16" enable-background="new 0 0 16 16" xml:space="preserve">
<style type="text/css">
	.st1{fill:none; stroke:#333333; stroke-width:1.5;}
	.st2{fill:url(#SVGID_4_);}
	.st3{fill:url(#SVGID_3_);}
	.st4{fill:#000000;}
    .st5{stroke:#000000; stroke-dasharray:1; stroke-width:1;}
</style>
<linearGradient id="SVGID_3_" gradientUnits="userSpaceOnUse" x1="9" y1="11" x2="15" y2="13">
    <stop  offset="0.1232" style="stop-color:#CCFFAA"/>
    <stop  offset="0.8633" style="stop-color:#88FF55"/>
</linearGradient>
<linearGradient id="SVGID_4_" gradientUnits="userSpaceOnUse" x1="0" y1="9" x2="9" y2="16">
	<stop  offset="8.047180e-02" style="stop-color:#D9F1FD"/>
	<stop  offset="0.3627" style="stop-color:#A9CFE7"/>
	<stop  offset="0.6413" style="stop-color:#80B2D5"/>
	<stop  offset="0.8608" style="stop-color:#67A1CA"/>
	<stop  offset="0.9939" style="stop-color:#5E9AC6"/>
</linearGradient>
<path class="st1" d="M0,9h2v2h5v-4h-5v2M7,9h4v3h-1l-1,1v1l1,1h2l1,-1v-1l-1,-1h-1M13,13.5h2M0,9z"/>
<path class="st2" d="M2,7v4h5v-4h-5z"/>
<path class="st3" d="M10,12l-1,1v1l1,1h2l1,-1v-1l-1,-1h-2z"/>
<path class="st5" d="M7,3h7M7,3z"/>
<path class="st4" d="M7.5,1l-3,2l3,2v-4z"/>
</svg>
