<?xml version="1.0" encoding="utf-8"?>
<!-- Generator: Adobe Illustrator 20.0.0, SVG Export Plug-In . SVG Version: 6.00 Build 0)  -->
<svg version="1.1" id="Layer_1" xmlns="http://www.w3.org/2000/svg" xmlns:xlink="http://www.w3.org/1999/xlink" x="0px" y="0px"
	 viewBox="0 0 200 200" style="enable-background:new 0 0 200 200;" xml:space="preserve">
<style type="text/css">
	.st0{fill:#F2F2F2;}
	.st1{fill:#CCCCCC;}
</style>
<g id="AREA_2_">
	<rect class="st0" width="200" height="200"/>
</g>
<g>
	<polygon class="st1" points="65.2,111.1 65.2,111.2 65.3,111.1 	"/>
	<polygon class="st1" points="122,100.9 107.9,82 97.4,95.8 92.2,90.2 78.7,106 73.2,101 64,112 122,112 	"/>
</g>
<path class="st1" d="M57,66v53h72V66H57z M127,117H58.8V68H127V117z"/>
<polygon class="st1" points="130,71 130,73 132,73 132,122 63.8,122 63.8,120 62,120 62,124 134,124 134,71 "/>
<circle class="st1" cx="76.5" cy="81.5" r="6.5"/>
</svg>
