<?xml version="1.0" encoding="UTF-8" standalone="no"?>
<svg xmlns:dc="http://purl.org/dc/elements/1.1/" xmlns:cc="http://creativecommons.org/ns#" xmlns:rdf="http://www.w3.org/1999/02/22-rdf-syntax-ns#" xmlns:svg="http://www.w3.org/2000/svg" xmlns="http://www.w3.org/2000/svg" id="svg46" version="1.1" fill="#696969" height="24" viewBox="0 0 24 24" width="24">
    <metadata id="metadata52">
        <rdf:RDF>
            <cc:Work rdf:about="">
                <dc:format>image/svg+xml</dc:format>
                <dc:type rdf:resource="http://purl.org/dc/dcmitype/StillImage" />
                <dc:title></dc:title>
            </cc:Work>
        </rdf:RDF>
    </metadata>
    <defs id="defs50" />
    <g id="g44">
        <path id="path36" transform="translate(0,1)" d="m 14.968644,9.6983051 h -0.553 l -0.196,-0.189 c 0.686,-0.798 1.099,-1.834 1.099,-2.961 0,-2.513 -2.037,-4.55 -4.55,-4.55 -2.5129999,0 -4.5499999,2.037 -4.5499999,4.55 0,2.513 2.037,4.5499999 4.5499999,4.5499999 1.127,0 2.163,-0.413 2.961,-1.0989999 l 0.189,0.1959999 v 0.553 l 3.5,3.493 1.043,-1.043 z m -4.2,0 c -1.7429999,0 -3.1499999,-1.407 -3.1499999,-3.15 0,-1.743 1.407,-3.15 3.1499999,-3.15 1.743,0 3.15,1.407 3.15,3.15 0,1.743 -1.407,3.15 -3.15,3.15 z" />
        <rect id="rect38" width="16" height="1" x="4" y="18" />
        <rect id="rect40" width="1" height="5" x="3" y="16" />
        <rect id="rect42" width="1" height="5" x="20" y="16" />
    </g>
</svg>
