<?xml version="1.0" encoding="UTF-8" standalone="no"?>
<svg xmlns:dc="http://purl.org/dc/elements/1.1/" xmlns:cc="http://creativecommons.org/ns#" xmlns:rdf="http://www.w3.org/1999/02/22-rdf-syntax-ns#" xmlns:svg="http://www.w3.org/2000/svg" xmlns="http://www.w3.org/2000/svg" id="svg64" version="1.1" fill="#696969" height="24" viewBox="0 0 24 24" width="24">
    <metadata id="metadata70">
        <rdf:RDF>
            <cc:Work rdf:about="">
                <dc:format>image/svg+xml</dc:format>
                <dc:type rdf:resource="http://purl.org/dc/dcmitype/StillImage" />
                <dc:title></dc:title>
            </cc:Work>
        </rdf:RDF>
    </metadata>
    <defs id="defs68" />
    <g id="g62">
        <path id="path54" transform="translate(0.26,0)" d="m 18.248305,13.028814 h -0.553 l -0.196,-0.189 c 0.686,-0.798 1.099,-1.834 1.099,-2.9610004 0,-2.513 -2.037,-4.55 -4.55,-4.55 -2.513,0 -4.5499999,2.037 -4.5499999,4.55 0,2.5130004 2.0369999,4.5500004 4.5499999,4.5500004 1.127,0 2.163,-0.413 2.961,-1.099 l 0.189,0.196 v 0.553 l 3.5,3.493 1.043,-1.043 z m -4.2,0 c -1.743,0 -3.15,-1.407 -3.15,-3.1500004 0,-1.743 1.407,-3.15 3.15,-3.15 1.743,0 3.15,1.407 3.15,3.15 0,1.7430004 -1.407,3.1500004 -3.15,3.1500004 z" />
        <rect id="rect56" width="1" height="17" x="6" y="4" />
        <rect id="rect58" width="5" height="1" x="4" y="3" />
        <rect id="rect60" width="5" height="1" x="4" y="20" />
    </g>
</svg>
