<?xml version="1.0" encoding="utf-8"?>
<!-- Generator: Adobe Illustrator 19.1.0, SVG Export Plug-In . SVG Version: 6.00 Build 0)  -->
<svg version="1.1" id="Layer_1" xmlns="http://www.w3.org/2000/svg" xmlns:xlink="http://www.w3.org/1999/xlink" x="0px" y="0px"
	 viewBox="0 0 159.5 27.5" style="enable-background:new 0 0 159.5 27.5;" xml:space="preserve">
<style type="text/css">
	.st0{fill:#FFFFFF;}
</style>
<g>
	<g>
		<g>
			<path class="st0" d="M1.5,20.2c0.7,1.8,2.9,6.3,7.1,6.3c2.9,0,4.8-1.7,4.8-4.9c0-3.9-3.1-5.1-5.2-6.2c-1.5-0.8-6.3-2.5-6.3-6.9
				c0-3.7,2.8-7,7.8-7c2.2,0,3.4,0.6,4.6,0.9c0.2,1.3,0.4,2.9,0.7,5.2l-0.6,0.1c-0.8-2.3-2-5.3-5.6-5.3c-3,0-4.3,2-4.3,4.4
				c0,2.8,2.2,4.2,5.1,5.5c2.8,1.3,6.5,2.9,6.5,7.5c0,4.3-3.6,7.6-8.4,7.7c-1.4-0.1-2.7-0.3-3.6-0.7c-1-0.3-1.6-0.6-2-0.8
				c-0.3-1-0.8-3.7-1.1-5.7L1.5,20.2z"/>
			<path class="st0" d="M21.9,22c0,3.7,0.3,4.1,3,4.4v0.5h-8.8v-0.5c2.8-0.4,3-0.8,3-4.4V9.9c0-3.7-0.3-4.1-3-4.4V5H25v0.5
				c-2.8,0.4-3,0.8-3,4.4V22z"/>
			<path class="st0" d="M31.7,5L40,22.5L48.3,5h5.2v0.5c-2.9,0.4-3.1,0.7-3,4.4L50.7,22c0.1,3.8,0.2,4,3.2,4.4v0.5h-8.8v-0.5
				c2.8-0.4,2.9-0.7,2.9-4.4l-0.1-14h-0.1l-8.5,18.5h-0.4L30.6,8.6h-0.1L30.3,18c-0.1,3.5,0,5.4,0.2,6.4c0.2,1.2,1,1.7,3.2,2.1v0.5
				h-7.9v-0.5c1.9-0.3,2.6-0.8,2.9-2.1c0.3-1,0.5-3.1,0.7-6.4l0.3-7.1c0.2-4.5,0-5-3.2-5.4V5H31.7z"/>
			<path class="st0" d="M63.4,5v0.5c-2.7,0.4-3,0.8-3,4.4V17c0,2.9,0.4,5,1.4,6.6c1,1.5,2.6,2.3,5,2.3c2.2,0,3.9-1,5-2.6
				c1.1-1.7,1.5-4.7,1.5-7.5v-1.9c0-3.6-0.2-5.4-0.4-6.4c-0.2-1.2-1.2-1.8-3.4-2.1V5h8.2v0.5c-1.9,0.2-2.7,0.9-3,2.1
				c-0.2,1-0.5,2.9-0.5,6.5v2.3c0,3.9-0.6,6.7-2.6,8.8c-1.5,1.6-3.9,2.4-6,2.4c-1.7,0-3.9-0.4-5.4-1.7c-1.8-1.5-2.6-3.8-2.6-7.6V9.9
				c0-3.7-0.3-4.1-3.1-4.4V5H63.4z"/>
			<path class="st0" d="M84.4,22.5c0,1.9,0.2,2.7,0.7,3.2c0.7,0.5,1.8,0.5,3.3,0.5c1.6,0,3.1-0.5,3.9-1.3c0.5-0.6,1.2-1.8,1.9-3.3
				l0.5,0.1c-0.2,0.9-0.9,4.4-1.2,5.3H78.5v-0.5c2.8-0.4,3.1-0.8,3.1-4.4V9.9c0-3.6-0.3-4.1-3.1-4.4V5h9v0.5
				c-2.9,0.4-3.2,0.8-3.2,4.4V22.5z"/>
			<path class="st0" d="M100.5,22c0,3.7,0.3,4.1,3,4.4v0.5h-8.8v-0.5c2.8-0.4,3-0.8,3-4.4V9.9c0-3.7-0.3-4.1-3-4.4V5h8.8v0.5
				c-2.8,0.4-3,0.8-3,4.4V22z"/>
			<path class="st0" d="M124.6,27.2H124L108.9,8.8h-0.1V18c0,3.5,0.2,5.4,0.4,6.4c0.2,1.2,1.1,1.8,3.4,2.1v0.5h-8.1v-0.5
				c1.9-0.2,2.7-0.9,3-2.1c0.2-1,0.4-2.9,0.4-6.4v-7.3c0-2.9,0-3.1-0.6-3.8c-0.6-0.8-1.6-1.2-3-1.5V5h4.9l14.4,17.3h0.1v-8.3
				c0-3.5-0.2-5.4-0.4-6.4c-0.2-1.2-1.1-1.8-3.4-2.1V5h8.1v0.5c-1.9,0.2-2.7,0.9-3,2.1c-0.2,1-0.4,2.9-0.4,6.4V27.2z"/>
			<path class="st0" d="M131.7,9.9c0-3.7-0.3-4.1-3.1-4.4V5h8.6v0.5c-2.7,0.4-3,0.8-3,4.4v5.8c1.7-1.5,6.5-6.4,8.1-8.5
				c0.5-0.7,0.7-1.2-0.3-1.4l-1.6-0.3V5h8.1v0.5c-2.1,0.4-2.8,0.6-5.1,2.4c-1.5,1.2-4.1,3.8-6.8,6.5c3.1,3.7,6.8,7.7,8.4,9.3
				c2.1,2.2,2.4,2.6,4.1,2.8v0.5h-4.9c-1.6-1.8-7.7-8.9-9.9-11.2V22c0,3.7,0.3,4.1,3.1,4.4v0.5h-8.6v-0.5c2.7-0.4,2.9-0.8,2.9-4.4
				V9.9z"/>
		</g>
	</g>
	<path class="st0" d="M155.6,4.3c1.1,0,2,1,2,2.1c0,1.2-0.9,2.2-2,2.2c-1.1,0-2-1-2-2.2C153.6,5.3,154.5,4.3,155.6,4.3z M155.6,4
		c-1.3,0-2.4,1.1-2.4,2.5c0,1.4,1.1,2.5,2.4,2.5c1.3,0,2.4-1.1,2.4-2.5C158.1,5.1,157,4,155.6,4z M154.5,5.1v0.1
		c0.3,0,0.3,0.1,0.3,0.4v1.6c0,0.3,0,0.4-0.3,0.4v0.1h1.2V7.7c-0.4-0.1-0.4-0.1-0.4-0.4V6.6h0.2c0.1,0,0.1,0.1,0.2,0.2
		c0,0.1,0.2,0.5,0.4,0.7c0.2,0.3,0.4,0.4,0.7,0.4l0.2,0l0-0.1l0,0c-0.1,0-0.1-0.1-0.2-0.2c-0.1-0.1-0.2-0.2-0.3-0.4
		c-0.1-0.2-0.3-0.5-0.4-0.6c0.3-0.1,0.6-0.4,0.6-0.7c0-0.6-0.5-0.7-0.9-0.7H154.5z M155.3,5.5c0-0.2,0-0.2,0.3-0.2
		c0.2,0,0.6,0.1,0.6,0.6c0,0.1,0,0.4-0.3,0.5c-0.1,0-0.2,0.1-0.3,0.1h-0.3V5.5z"/>
</g>
</svg>
