<svg xmlns="http://www.w3.org/2000/svg" xmlns:xlink="http://www.w3.org/1999/xlink" viewBox="0 0 13 16"><defs><style>.cls-1{fill:url(#linear-gradient);}.cls-2{fill:url(#Green_Frame_2);}.cls-3{fill:#fff;}.cls-4{opacity:0.6;}</style><linearGradient id="linear-gradient" x1="-4.86" y1="-52.84" x2="-4.86" y2="-68.84" gradientTransform="translate(11.36 68.84)" gradientUnits="userSpaceOnUse"><stop offset="0" stop-color="#4ea43f"/><stop offset="0.54" stop-color="#b7e060"/><stop offset="0.93" stop-color="#fff"/></linearGradient><linearGradient id="Green_Frame_2" x1="6.5" y1="16" x2="6.5" gradientUnits="userSpaceOnUse"><stop offset="0" stop-color="#195c19"/><stop offset="0.41" stop-color="#2d6a2d"/><stop offset="1" stop-color="#6cae40"/></linearGradient></defs><title>step_out_16</title><g id="Layer_2" data-name="Layer 2"><g id="Icons"><g id="NEW"><g id="TOOLSTRIP"><g id="step_out_16"><polygon class="cls-1" points="8 0 3 6 6 6 6 12 0 12 0 16 10 16 10 6 13 6 8 0"/><path class="cls-2" d="M8,1.56,10.86,5H9V15H1V13H7V5H5.14L8,1.56M8,0,3,6H6v6H0v4H10V6h3L8,0Z"/><polygon class="cls-3" points="5 5 6 5 8 3 10 5 11 5 8 2 5 5"/><g class="cls-4"><rect class="cls-3" x="1" y="13" width="6" height="1"/></g></g></g></g></g></g></svg>