<?xml version="1.0" encoding="utf-8"?>
<!-- Generator: Adobe Illustrator 20.1.0, SVG Export Plug-In . SVG Version: 6.00 Build 0)  -->
<svg version="1.1" id="Layer_1" xmlns="http://www.w3.org/2000/svg" xmlns:xlink="http://www.w3.org/1999/xlink" x="0px" y="0px"
	 width="24px" height="24px" viewBox="0 0 24 24" enable-background="new 0 0 24 24" xml:space="preserve">
<style type="text/css">
	.st0{fill:#0093FF;}
	.st1{fill:#FFFFFF;}
	.st2{fill:url(#SVGID_1_);}
	.st3{fill:url(#SVGID_2_);}
	.st4{fill:#231f20;}
	.st5{fill:url(#SVGID_3_);}
	.st6{fill:url(#SVGID_4_);}
	.st7{opacity:0.5;}
	.st8{fill:url(#SVGID_5_);}
	.st9{fill:#333333;}
	.st10{fill:url(#SVGID_6_);}
	.st11{fill:url(#SVGID_7_);}
	.st12{fill:url(#SVGID_8_);}
	.st13{fill:url(#SVGID_9_);}
	.st14{fill:url(#SVGID_10_);}
	.st15{fill:#4D4D4D;}
	.st16{fill:url(#SVGID_11_);}
	.st17{fill:url(#SVGID_12_);}
	.st18{fill:url(#SVGID_13_);}
	.st19{fill:url(#SVGID_14_);}
	.st20{fill:url(#SVGID_15_);}
	.st21{fill:#1A1A1A;}
</style>
<g>
    <path class="st4" d="m14,17v-2h8v-1h-8v-2h-5v2h-7v1h7v2h2v5h11v-1h-10v-4h2z"/>
    <path class="st4" d="m14.73,9.44a6.1,6.1 0 0 0 -6.43,0l-0.54,-0.85a7.12,7.12 0 0 1 7.5,0l-0.53,0.85z"/>
    <path class="st4" d="m6.37,4.74l-0.74,-0.68a8,8 0 0 1 11.73,0l-0.73,0.68a7,7 0 0 0 -10.26,0z"/>
     
	<radialGradient id="SVGID_1_" cx="18.1795" cy="17.7082" r="6.8159" gradientTransform="matrix(1 0 0 0.9974 0 0.1563)" gradientUnits="userSpaceOnUse">
		<stop  offset="6.061020e-03" style="stop-color:#FFFFFF"/>
		<stop  offset="0.5155" style="stop-color:#B7E060"/>
		<stop  offset="1" style="stop-color:#4EA43F"/>
	</radialGradient>
	<linearGradient id="SVGID_2_" gradientUnits="userSpaceOnUse" x1="20" y1="24" x2="20" y2="16">
		<stop  offset="1.226990e-02" style="stop-color:#154814"/>
		<stop  offset="0.5828" style="stop-color:#528E39"/>
		<stop  offset="1" style="stop-color:#71B542"/>
	</linearGradient>
    
    <path class="st2" d="m17,23v-3h-3v-3h3v-3h3v3h3v3h-3v3h-3z"/>
	<path class="st3" d="m20,17h3v3h-3v3h-3v-3h-3v-3h3v-3h3v3z M16,13v3h-3v5h3v3h5v-3h3v-5h-3v-3h-5z"/>
</g>
</svg>
