<?xml version="1.0" encoding="utf-8"?>
<!-- Generator: Adobe Illustrator 20.1.0, SVG Export Plug-In . SVG Version: 6.00 Build 0)  -->
<svg version="1.1" id="Layer_1" xmlns="http://www.w3.org/2000/svg" xmlns:xlink="http://www.w3.org/1999/xlink" x="0px" y="0px"
	 width="16px" height="16px" viewBox="0 0 24 24" enable-background="new 0 0 24 24" xml:space="preserve">
<style type="text/css">
	.st4{fill:#231f20;}
</style>
<g>
    <path class="st4" d="m14,17v-2h8v-1h-8v-2h-5v2h-7v1h7v2h2v5h11v-1h-10v-4h2z"/>
    <path class="st4" d="m14.73,9.44a6.1,6.1 0 0 0 -6.43,0l-0.54,-0.85a7.12,7.12 0 0 1 7.5,0l-0.53,0.85z"/>
    <path class="st4" d="m6.37,4.74l-0.74,-0.68a8,8 0 0 1 11.73,0l-0.73,0.68a7,7 0 0 0 -10.26,0z"/>
</g>
</svg>
