<?xml version="1.0" encoding="utf-8"?>
<!-- Generator: Adobe Illustrator 20.1.0, SVG Export Plug-In . SVG Version: 6.00 Build 0)  -->
<svg version="1.1" id="Layer_1" xmlns="http://www.w3.org/2000/svg" xmlns:xlink="http://www.w3.org/1999/xlink" x="0px" y="0px"
	 width="24px" height="24px" viewBox="0 0 16 16" enable-background="new 0 0 16 16" xml:space="preserve">
<style type="text/css">
	.st0{fill:#0093FF;}
	.st1{fill:#FFFFFF;}
	.st2{fill:url(#SVGID_1_);}
	.st3{fill:url(#SVGID_2_);}
	.st4{opacity:0.8;}
	.st5{fill:url(#SVGID_3_);}
	.st6{fill:url(#SVGID_4_);}
	.st7{opacity:0.5;}
	.st8{fill:url(#SVGID_5_);}
	.st9{fill:#333333;}
	.st10{fill:url(#SVGID_6_);}
	.st11{fill:url(#SVGID_7_);}
	.st12{fill:url(#SVGID_8_);}
	.st13{fill:url(#SVGID_9_);}
	.st14{fill:url(#SVGID_10_);}
	.st15{fill:#4D4D4D;}
	.st16{fill:url(#SVGID_11_);}
	.st17{fill:url(#SVGID_12_);}
	.st18{fill:url(#SVGID_13_);}
	.st19{fill:url(#SVGID_14_);}
	.st20{fill:url(#SVGID_15_);}
	.st21{fill:#1A1A1A;}
</style>
<linearGradient id="SVGID_1_" gradientUnits="userSpaceOnUse" x1="7.9999" y1="15.9795" x2="7.9999" y2="2.049717e-02">
	<stop  offset="7.361960e-02" style="stop-color:#1B2F49"/>
	<stop  offset="0.5828" style="stop-color:#37628D"/>
	<stop  offset="0.9264" style="stop-color:#5D809F"/>
</linearGradient>
<path class="st2" d="M10.9,8h3.9H16l-3-8l-1.7,2.2c-1.1-0.7-2.5-1.1-3.9-1.1C3.3,1.2,0,4.5,0,8.6S3.3,16,7.4,16
	c2.1,0,3.9-0.8,5.3-2.2L9.9,11c-0.6,0.6-1.5,1-2.4,1C5.6,12,4,10.4,4,8.5S5.6,5,7.5,5C8,5,8.5,5.1,9,5.4L7,8H10.9z"/>
<linearGradient id="SVGID_2_" gradientUnits="userSpaceOnUse" x1="7.9003" y1="3.5105" x2="7.9003" y2="15.9809">
	<stop  offset="8.047180e-02" style="stop-color:#D9F1FD"/>
	<stop  offset="0.3627" style="stop-color:#A9CFE7"/>
	<stop  offset="0.6413" style="stop-color:#80B2D5"/>
	<stop  offset="0.8608" style="stop-color:#67A1CA"/>
	<stop  offset="0.9939" style="stop-color:#5E9AC6"/>
</linearGradient>
<path class="st3" d="M7.5,13.1c-2.6,0-4.6-2.1-4.6-4.6s2.1-4.6,4.6-4.6c0.8,0,1.5,0.2,2.2,0.5l0.8,0.7L9.1,7h5.7l-2.2-4.9l-0.9,1.3
	L11,3c-1-0.6-2.2-1-3.5-1C3.9,2,1,4.9,1,8.5C1,12.1,3.9,15,7.5,15c1.4,0,2.6-0.4,3.7-1.2l-1.4-1.4C9.1,12.9,8.4,13.1,7.5,13.1z"/>
<g class="st4">
	<path class="st1" d="M7.5,3C8.8,3,10,3.4,11,4l0.7,0.3l0.9-1.3L14.4,7h0.4l-2.2-4.9l-0.9,1.3L11,3c-1-0.6-2.2-1-3.5-1
		C3.9,2,1,4.9,1,8.5C1,8.7,1,8.8,1,9C1.3,5.7,4.1,3,7.5,3z"/>
	<polygon class="st1" points="10,5.7 9.1,7 9.8,7 10.4,6.1 	"/>
	<path class="st1" d="M7.5,13.1c-2.4,0-4.3-1.8-4.6-4.1c0,0.2-0.1,0.3-0.1,0.5c0,2.5,2.1,4.6,4.6,4.6c0.9,0,1.6-0.2,2.3-0.6l0.7,0.7
		c0.2-0.1,0.4-0.2,0.6-0.4l-1.4-1.4C9.1,12.9,8.4,13.1,7.5,13.1z"/>
</g>
</svg>
