<?xml version="1.0" encoding="utf-8"?>
<!-- Generator: Adobe Illustrator 20.1.0, SVG Export Plug-In . SVG Version: 6.00 Build 0)  -->
<svg version="1.1" id="Layer_1" xmlns="http://www.w3.org/2000/svg" xmlns:xlink="http://www.w3.org/1999/xlink" x="0px" y="0px"
	 width="24px" height="24px" viewBox="0 0 24 24" enable-background="new 0 0 24 24" xml:space="preserve">
    <style type="text/css">
        .st0{fill:#0093FF;}
        .st1{fill:#FFFFFF;}
        .st2{fill:url(#SVGID_2_); stroke:#001122; stroke-width:1;}
        .st3{fill:url(#SVGID_3_); stroke:#666666; stroke-width:1;}
	    .st4{fill:#231f20;}
        .st5{fill:url(#SVGID_3_);}
        .st6{fill:url(#SVGID_4_);}
        .st7{opacity:0.5;}
        .st8{fill:url(#SVGID_5_);}
        .st9{fill:#333333;}
        .st10{fill:url(#SVGID_6_);}
        .st11{fill:url(#SVGID_7_);}
        .st12{fill:url(#SVGID_8_);}
        .st13{fill:url(#SVGID_9_);}
        .st14{fill:url(#SVGID_10_);}
        .st15{fill:#4D4D4D;}
        .st16{fill:url(#SVGID_11_);}
        .st17{fill:url(#SVGID_12_);}
        .st18{fill:url(#SVGID_13_);}
        .st19{fill:url(#SVGID_14_);}
        .st20{fill:url(#SVGID_15_);}
        .st21{fill:#1A1A1A;}
    </style>
    <g>
        <path class="st4" d="m14,17v-2h8v-1h-8v-2h-5v2h-7v1h7v2h2v5h11v-1h-10v-4h2z"/>
        <path class="st4" d="m14.73,9.44a6.1,6.1 0 0 0 -6.43,0l-0.54,-0.85a7.12,7.12 0 0 1 7.5,0l-0.53,0.85z"/>
        <path class="st4" d="m6.37,4.74l-0.74,-0.68a8,8 0 0 1 11.73,0l-0.73,0.68a7,7 0 0 0 -10.26,0z"/>
         
        <svg version="1.1" id="Layer_2" xmlns="http://www.w3.org/2000/svg" xmlns:xlink="http://www.w3.org/1999/xlink" x="12px" y="12px" width="12px" height="12px" viewBox="0 0 16 16" xml:space="preserve">
            <linearGradient id="SVGID_1_" gradientUnits="userSpaceOnUse" x1="7.9999" y1="15.9795" x2="7.9999" y2="2.049717e-02">
                <stop  offset="7.361960e-02" style="stop-color:#111111"/>
                <stop  offset="0.5828" style="stop-color:#222222"/>
                <stop  offset="0.9264" style="stop-color:#333333"/>
            </linearGradient>
            <linearGradient id="SVGID_2_" gradientUnits="userSpaceOnUse" x1="7.9003" y1="3.5105" x2="7.9003" y2="15.9809">
                <stop  offset="8.047180e-02" style="stop-color:#D9F1FD"/>
                <stop  offset="0.3627" style="stop-color:#A9CFE7"/>
                <stop  offset="0.6413" style="stop-color:#80B2D5"/>
                <stop  offset="0.8608" style="stop-color:#67A1CA"/>
                <stop  offset="0.9939" style="stop-color:#5E9AC6"/>
            </linearGradient>
            <linearGradient id="SVGID_3_" gradientUnits="userSpaceOnUse" x1="5" y1="14" x2="5" y2="6">
                <stop  offset="0.2032" style="stop-color:#CCCCCC"/>
                <stop  offset="0.7633" style="stop-color:#818181"/>
                <stop  offset="0.7679" style="stop-color:#808080"/>
            </linearGradient>
            <path class="st2" d="M1,15h7v-7h2v2l4,-4l-4,-4v2h-6v7h-3v3z"/>
        </svg>
    </g>
</svg>
