<?xml version="1.0" encoding="utf-8"?>
<!-- Generator: Adobe Illustrator 20.1.0, SVG Export Plug-In . SVG Version: 6.00 Build 0)  -->
<svg version="1.1" id="Layer_1" xmlns="http://www.w3.org/2000/svg" xmlns:xlink="http://www.w3.org/1999/xlink" x="0px" y="0px"
	 width="24px" height="24px" viewBox="0 0 16 16" enable-background="new 0 0 16 16" xml:space="preserve">
<style type="text/css">
	.st0{fill:#0093FF;}
	.st1{fill:#FFFFFF;}
	.st2{fill:url(#SVGID_1_);}
	.st3{fill:url(#SVGID_2_);}
	.st4{opacity:0.8;}
	.st5{fill:url(#SVGID_3_);}
	.st6{fill:url(#SVGID_4_);}
	.st7{opacity:0.5;}
	.st8{fill:url(#SVGID_5_);}
	.st9{fill:#333333;}
	.st10{fill:url(#SVGID_6_);}
	.st11{fill:url(#SVGID_7_);}
	.st12{fill:url(#SVGID_8_);}
	.st13{fill:url(#SVGID_9_);}
	.st14{fill:url(#SVGID_10_);}
	.st15{fill:#4D4D4D;}
	.st16{fill:url(#SVGID_11_);}
	.st17{fill:url(#SVGID_12_);}
	.st18{fill:url(#SVGID_13_);}
	.st19{fill:url(#SVGID_14_);}
	.st20{fill:url(#SVGID_15_);}
	.st21{fill:#1A1A1A;}
</style>
<rect y="2" class="st9" width="14" height="2"/>
<rect y="6" class="st9" width="14" height="2"/>
<rect y="10" class="st9" width="14" height="2"/>
<g>
	
		<radialGradient id="SVGID_1_" cx="10.1795" cy="9.7082" r="6.8159" gradientTransform="matrix(1 0 0 0.9974 0 0.1563)" gradientUnits="userSpaceOnUse">
		<stop  offset="6.061020e-03" style="stop-color:#FFFFFF"/>
		<stop  offset="0.5155" style="stop-color:#B7E060"/>
		<stop  offset="1" style="stop-color:#4EA43F"/>
	</radialGradient>
	<polygon class="st2" points="11,15 11,13 9,13 9,11 11,11 11,9 13,9 13,11 15,11 15,13 13,13 13,15 	"/>
	<linearGradient id="SVGID_2_" gradientUnits="userSpaceOnUse" x1="12" y1="16" x2="12" y2="8.0205">
		<stop  offset="1.226990e-02" style="stop-color:#154814"/>
		<stop  offset="0.5828" style="stop-color:#528E39"/>
		<stop  offset="1" style="stop-color:#71B542"/>
	</linearGradient>
	<path class="st3" d="M13,11h2v2h-2v2h-2v-2H9v-2h2V9h2L13,11z M10,8v2H8v4h2v2l4,0v-2h2v-4h-2V8H10z"/>
</g>
</svg>
