<?xml version="1.0" encoding="UTF-8" standalone="no"?>
<svg xmlns:dc="http://purl.org/dc/elements/1.1/" xmlns:cc="http://creativecommons.org/ns#" xmlns:rdf="http://www.w3.org/1999/02/22-rdf-syntax-ns#" xmlns:svg="http://www.w3.org/2000/svg" xmlns="http://www.w3.org/2000/svg" height="36" viewBox="0 0 24 24" width="36" fill="#696969" version="1.1" id="svg3890">
    <metadata id="metadata3896">
        <rdf:RDF>
            <cc:Work rdf:about="">
                <dc:format>image/svg+xml</dc:format>
                <dc:type rdf:resource="http://purl.org/dc/dcmitype/StillImage" />
                <dc:title></dc:title>
            </cc:Work>
        </rdf:RDF>
    </metadata>
    <defs id="defs3894">
        <clipPath id="clipPath6037" clipPathUnits="userSpaceOnUse">
            <g id="use6039">
                <g id="g6137">
                    <path style="opacity:1;fill:#ffffff;fill-opacity:1;stroke:none;stroke-width:0.66666657;stroke-opacity:1;paint-order:fill markers stroke" d="M 6.9999999,5 H 17 c 0.738667,0 1.333333,0.5946667 1.333333,1.3333334 v 3.9999996 c 0,0.738667 -0.594666,1.333334 -1.333333,1.333334 H 6.9999999 c -0.7386667,0 -1.3333334,-0.594667 -1.3333334,-1.333334 V 6.3333334 C 5.6666665,5.5946667 6.2613332,5 6.9999999,5 Z" id="path6135" />
                </g>
            </g>
        </clipPath>
    </defs>
    <path fill="none" d="M0 0h24v24H0z" id="path3886" />
    <path id="path3888" transform="scale(0.66666667)" d="M 7.5 4.5 C 5.85 4.5 4.5 5.85 4.5 7.5 L 4.5 27 L 9 31.5 L 28.5 31.5 C 30.165 31.5 31.5 30.15 31.5 28.5 L 31.5 7.5 C 31.5 5.85 30.165 4.5 28.5 4.5 L 7.5 4.5 z M 10.5 7.5 L 25.5 7.5 C 26.608 7.5 27.5 8.392 27.5 9.5 L 27.5 15.5 C 27.5 16.608 26.608 17.5 25.5 17.5 L 10.5 17.5 C 9.3919999 17.5 8.5 16.608001 8.5 15.5 L 8.5 9.5 C 8.5 8.392 9.3919999 7.5 10.5 7.5 z M 11 21 L 25 21 L 25 28.5 L 11 28.5 L 11 21 z " style="stroke:none;stroke-width:1.5;stroke-opacity:1" />
    <rect y="15.333333" x="8.666667" height="2.6666667" width="2" id="rect6030" style="opacity:1;fill:#696969;fill-opacity:1;stroke:none;stroke-width:0.66666669;stroke-opacity:1;paint-order:fill markers stroke" />
    <g id="g6106" />
</svg>
