<?xml version="1.0" encoding="utf-8"?>
<!-- Generator: Adobe Illustrator 20.1.0, SVG Export Plug-In . SVG Version: 6.00 Build 0)  -->
<svg version="1.1" id="Layer_1" xmlns="http://www.w3.org/2000/svg" xmlns:xlink="http://www.w3.org/1999/xlink" x="0px" y="0px"
	 viewBox="0 0 16 16" style="enable-background:new 0 0 16 16;" xml:space="preserve">
<style type="text/css">
	.st0{fill:#0093FF;}
	.st1{fill:#FFFFFF;}
	.st2{fill:url(#SVGID_1_);}
	.st3{fill:url(#SVGID_2_);}
	.st4{opacity:0.8;}
	.st5{fill:url(#SVGID_3_);}
	.st6{fill:url(#SVGID_4_);}
	.st7{opacity:0.5;}
	.st8{fill:url(#SVGID_5_);}
	.st9{fill:#333333;}
	.st10{fill:url(#SVGID_6_);}
	.st11{fill:url(#SVGID_7_);}
	.st12{fill:url(#SVGID_8_);}
	.st13{fill:url(#SVGID_9_);}
	.st14{fill:url(#SVGID_10_);}
	.st15{fill:#4D4D4D;}
	.st16{fill:url(#SVGID_11_);}
	.st17{fill:url(#SVGID_12_);}
	.st18{fill:url(#SVGID_13_);}
	.st19{fill:url(#SVGID_14_);}
	.st20{fill:url(#SVGID_15_);}
	.st21{fill:#1A1A1A;}
</style>
<g>
	<g>
		<g>
			<g>
				<g>
					<g>
						<linearGradient id="SVGID_1_" gradientUnits="userSpaceOnUse" x1="8" y1="16" x2="8" y2="0">
							<stop  offset="9.202450e-02" style="stop-color:#143253"/>
							<stop  offset="0.9939" style="stop-color:#609ABD"/>
						</linearGradient>
						<path class="st2" d="M8,16c-4.4,0-8-3.6-8-8s3.6-8,8-8s8,3.6,8,8S12.4,16,8,16L8,16z"/>
					</g>
				</g>
			</g>
		</g>
	</g>
	<radialGradient id="SVGID_2_" cx="3.9625" cy="1.7062" r="15.1553" gradientUnits="userSpaceOnUse">
		<stop  offset="0.227" style="stop-color:#FFFFFF"/>
		<stop  offset="0.6408" style="stop-color:#D9E3E6"/>
		<stop  offset="0.8896" style="stop-color:#92A6B6"/>
		<stop  offset="1" style="stop-color:#3F72A9"/>
	</radialGradient>
	<path class="st3" d="M8,15.1c-3.9,0-7.1-3.2-7.1-7.1S4.1,0.9,8,0.9c3.9,0,7.1,3.2,7.1,7.1S11.9,15.1,8,15.1L8,15.1z"/>
	<path class="st1" d="M8,2c3.7,0,6.8,2.9,7.1,6.6c0-0.2,0-0.4,0-0.6c0-3.9-3.2-7.1-7.1-7.1C4.1,0.9,0.9,4.1,0.9,8c0,0.2,0,0.4,0,0.6
		C1.2,4.9,4.3,2,8,2z"/>
	<g>
		<g class="st7">
			<path class="st1" d="M9,14H7v-2h2V14z M10.3,9C9.9,9.2,9.7,9.8,9,10v1H7V9c0.9,0,1.7-0.6,2.1-1c0.3-0.3,0.4-0.6,0.4-1
				c0-0.8-0.6-1.4-1.3-1.4C7.3,5.5,6.9,6,6.7,7H5C5,6.3,5.1,6.1,5.3,5.7C5.8,4.6,6.8,4,8.1,4c1.8,0,3.2,1.1,3.2,2.8
				C11.3,7.7,10.9,8.4,10.3,9z"/>
		</g>
		<g>
			<linearGradient id="SVGID_3_" gradientUnits="userSpaceOnUse" x1="5.0104" y1="4.7285" x2="11.1409" y2="10.8591">
				<stop  offset="0" style="stop-color:#2E394A"/>
				<stop  offset="0.3865" style="stop-color:#3F4C60"/>
				<stop  offset="0.9939" style="stop-color:#5485AC"/>
			</linearGradient>
			<path class="st5" d="M9,13H7v-2h2V13z M10.3,8C9.9,8.2,9.7,8.8,9,9v1H7V8c0.9,0,1.7-0.6,2.1-1c0.3-0.3,0.4-0.6,0.4-1
				c0-0.8-0.6-1.4-1.3-1.4C7.3,4.5,6.9,5,6.7,6H5C5,5.3,5.1,5.1,5.3,4.7C5.8,3.6,6.8,3,8.1,3c1.8,0,3.2,1.1,3.2,2.8
				C11.3,6.7,10.9,7.4,10.3,8z"/>
		</g>
	</g>
</g>
</svg>
