<?xml version="1.0" encoding="UTF-8"?>
<svg width="14px" height="15px" viewBox="0 0 14 15" version="1.1" xmlns="http://www.w3.org/2000/svg" xmlns:xlink="http://www.w3.org/1999/xlink">
    <!-- Generator: Sketch 46.1 (44463) - http://www.bohemiancoding.com/sketch -->
    <title>Artboard 2</title>
    <desc>Created with Sketch.</desc>
    <defs>
        <path d="M1,2.9919131 C1,1.89180987 1.90195036,1 3.0085302,1 L10.9914698,1 C12.1007504,1 13,1.89339238 13,2.9919131 L13,8.65744211 L7.72374019,13.7077739 C7.32402952,14.090369 6.67741394,14.0917507 6.27625981,13.7077739 L1,8.65744211 L1,2.9919131 Z" id="path-1"></path>
        <filter x="-12.5%" y="-11.5%" width="125.0%" height="123.1%" filterUnits="objectBoundingBox" id="filter-2">
            <feOffset dx="0" dy="0" in="SourceAlpha" result="shadowOffsetOuter1"></feOffset>
            <feGaussianBlur stdDeviation="0.5" in="shadowOffsetOuter1" result="shadowBlurOuter1"></feGaussianBlur>
            <feComposite in="shadowBlurOuter1" in2="SourceAlpha" operator="out" result="shadowBlurOuter1"></feComposite>
            <feColorMatrix values="0 0 0 0 0   0 0 0 0 0   0 0 0 0 0  0 0 0 0.25 0" type="matrix" in="shadowBlurOuter1"></feColorMatrix>
        </filter>
        <filter x="-16.7%" y="-15.4%" width="133.3%" height="130.8%" filterUnits="objectBoundingBox" id="filter-3">
            <feOffset dx="0" dy="2" in="SourceAlpha" result="shadowOffsetInner1"></feOffset>
            <feComposite in="shadowOffsetInner1" in2="SourceAlpha" operator="arithmetic" k2="-1" k3="1" result="shadowInnerInner1"></feComposite>
            <feColorMatrix values="0 0 0 0 1   0 0 0 0 1   0 0 0 0 1  0 0 0 1 0" type="matrix" in="shadowInnerInner1"></feColorMatrix>
        </filter>
    </defs>
    <g id="Page-1" stroke="none" stroke-width="1" fill="none" fill-rule="evenodd">
        <g id="Artboard-2">
            <g id="slider_thumb_hover">
                <use fill="black" fill-opacity="1" filter="url(#filter-2)" xlink:href="#path-1"></use>
                <use fill="#FAFAFA" fill-rule="evenodd" xlink:href="#path-1"></use>
                <use fill="black" fill-opacity="1" filter="url(#filter-3)" xlink:href="#path-1"></use>
                <path stroke="#808080" stroke-width="1" d="M1.5,8.44389894 L6.62199533,13.3465718 C6.82920304,13.5449069 7.17103258,13.5446814 7.37800467,13.3465718 L12.5,8.44389894 L12.5,2.9919131 C12.5,2.16986037 11.8249219,1.5 10.9914698,1.5 L3.0085302,1.5 C2.1761315,1.5 1.5,2.16991546 1.5,2.9919131 L1.5,8.44389894 Z"></path>
            </g>
        </g>
    </g>
</svg>