<?xml version="1.0" encoding="UTF-8" standalone="no"?>
<svg xmlns:dc="http://purl.org/dc/elements/1.1/" xmlns:cc="http://creativecommons.org/ns#" xmlns:rdf="http://www.w3.org/1999/02/22-rdf-syntax-ns#" xmlns:svg="http://www.w3.org/2000/svg" xmlns="http://www.w3.org/2000/svg" id="svg120" version="1.1" fill="#696969" width="24" height="24" viewBox="0 0 24 24">
    <metadata id="metadata126">
        <rdf:RDF>
            <cc:Work rdf:about="">
                <dc:format>image/svg+xml</dc:format>
                <dc:type rdf:resource="http://purl.org/dc/dcmitype/StillImage" />
                <dc:title></dc:title>
            </cc:Work>
        </rdf:RDF>
    </metadata>
    <defs id="defs124" />
    <path id="path118" fill="##696969" d="m 18.686779,12.882 c 0.036,-0.288 0.063,-0.576 0.063,-0.882 0,-0.306 -0.027,-0.594 -0.063,-0.882 l 1.899,-1.485 c 0.171,-0.135 0.216,-0.378 0.108,-0.576 l -1.8,-3.114 c -0.108,-0.198 -0.351,-0.27 -0.549,-0.198 l -2.241,0.9 c -0.468,-0.36 -0.972,-0.657 -1.521,-0.882 l -0.342,-2.385 C 14.213779,3.162 14.024779,3 13.799779,3 h -3.6 C 9.9747791,3 9.7857791,3.162 9.7587791,3.378 l -0.342,2.385 c -0.549,0.225 -1.053,0.531 -1.521,0.882 l -2.241,-0.9 c -0.207,-0.081 -0.441,0 -0.549,0.198 l -1.8,3.114 c -0.117,0.198 -0.063,0.441 0.108,0.576 l 1.899,1.485 c -0.036,0.288 -0.063,0.585 -0.063,0.882 0,0.297 0.027,0.594 0.063,0.882 l -1.899,1.485 c -0.171,0.135 -0.216,0.378 -0.108,0.576 l 1.8,3.114 c 0.108,0.198 0.351,0.27 0.549,0.198 l 2.241,-0.9 c 0.468,0.36 0.972,0.657 1.521,0.882 l 0.342,2.385 c 0.027,0.216 0.216,0.378 0.4409999,0.378 h 3.6 c 0.225,0 0.414,-0.162 0.441,-0.378 l 0.342,-2.385 c 0.549,-0.225 1.053,-0.531 1.521,-0.882 l 2.241,0.9 c 0.207,0.081 0.441,0 0.549,-0.198 l 1.8,-3.114 c 0.108,-0.198 0.063,-0.441 -0.108,-0.576 z m -6.687,2.268 c -1.737,0 -3.1499999,-1.413 -3.1499999,-3.15 0,-1.737 1.4129999,-3.15 3.1499999,-3.15 1.737,0 3.15,1.413 3.15,3.15 0,1.737 -1.413,3.15 -3.15,3.15 z" />
</svg>
