<?xml version="1.0" encoding="UTF-8" standalone="no"?>
<svg xmlns:dc="http://purl.org/dc/elements/1.1/" xmlns:cc="http://creativecommons.org/ns#" xmlns:rdf="http://www.w3.org/1999/02/22-rdf-syntax-ns#" xmlns:svg="http://www.w3.org/2000/svg" xmlns="http://www.w3.org/2000/svg" id="svg167" version="1.1" width="24" height="24" viewBox="0 0 24 24" fill="#696969">
    <metadata id="metadata173">
        <rdf:RDF>
            <cc:Work rdf:about="">
                <dc:format>image/svg+xml</dc:format>
                <dc:type rdf:resource="http://purl.org/dc/dcmitype/StillImage" />
                <dc:title></dc:title>
            </cc:Work>
        </rdf:RDF>
    </metadata>
    <defs id="defs171" />
    <circle id="circle163" r="2.8800001" cy="11.9" cx="12" />
        <path id="path165" fill="#696969" d="M 9.3,2.9 7.653,4.7 H 4.8 C 3.81,4.7 3,5.51 3,6.5 v 10.8 c 0,0.99 0.81,1.8 1.8,1.8 h 14.4 c 0.99,0 1.8,-0.81 1.8,-1.8 V 6.5 C 21,5.51 20.19,4.7 19.2,4.7 H 16.347 L 14.7,2.9 Z M 12,16.4 c -2.484,0 -4.5,-2.016 -4.5,-4.5 0,-2.484 2.016,-4.5 4.5,-4.5 2.484,0 4.5,2.016 4.5,4.5 0,2.484 -2.016,4.5 -4.5,4.5 z" />
</svg>
